#!OML:ASF G:\JayActor3\Patient Classification 1\Patient 1\Session 5\male.ASF
:FULLY-SPECIFIED
:DEGREES
800
root 6.20828 16.8138 -5.38368 138.393 -86.9128 -142.815
lowerback 0.340991 -1.24223 1.58304
upperback 1.68963 -1.67581 -0.153926
thorax 1.48972 -0.820119 -1.0598
lowerneck -7.48217 0.776069 2.10178
upperneck 11.5766 0.507251 1.56312
head 4.70454 0.399839 0.16747
rclavicle 3.57968e-014 -3.37934e-015
rhumerus -33.9053 -5.14253 -85.4478
rradius 28.1871
rwrist 1.40485
rhand -17.808 -8.48266
rfingers 7.12502
rthumb 8.45565 -38.2934
lclavicle 3.57968e-014 -3.37934e-015
lhumerus -32.6124 7.95383 82.878
lradius 26.4094
lwrist 16.8128
lhand -18.7116 14.1462
lfingers 7.12502
lthumb 7.5835 43.9902
rfemur -19.4494 7.33347 26.274
rtibia 32.6997
rfoot -13.3005 -15.1624
rtoes 16.5348
lfemur 12.7038 5.87474 -17.8535
ltibia 28.5213
lfoot -5.30618 -5.88549
ltoes -22.4276
801
root 6.3114 16.8051 -5.36391 138.97 -87.0516 -143.255
lowerback 0.34014 -1.26161 1.49718
upperback 1.67007 -1.70035 -0.180473
thorax 1.471 -0.833477 -1.03886
lowerneck -7.49097 0.763407 2.09198
upperneck 11.5055 0.494223 1.56239
head 4.68404 0.392836 0.167938
rclavicle 1.27781e-014 -1.78906e-015
rhumerus -33.822 -5.06597 -85.5148
rradius 28.272
rwrist 1.3616
rhand -17.7545 -8.56302
rfingers 7.12502
rthumb 8.50728 -38.3717
lclavicle 1.27781e-014 -1.78906e-015
lhumerus -32.4815 7.77301 82.9946
lradius 26.7311
lwrist 16.9908
lhand -18.7684 14.1293
lfingers 7.12502
lthumb 7.52869 43.9753
rfemur -20.0967 7.4536 25.9938
rtibia 32.8178
rfoot -12.8055 -15.3959
rtoes 16.6137
lfemur 13.4938 5.61229 -18.244
ltibia 26.5192
lfoot -6.29326 -5.578
ltoes -22.6174
802
root 6.416 16.7973 -5.34351 139.624 -87.1874 -143.768
lowerback 0.338383 -1.27731 1.41451
upperback 1.65594 -1.72019 -0.205209
thorax 1.4585 -0.84439 -1.01791
lowerneck -7.50066 0.747943 2.08122
upperneck 11.4244 0.477891 1.56173
head 4.66062 0.384144 0.168368
rclavicle 1.00324e-015 5.96354e-016
rhumerus -33.7267 -4.98818 -85.5778
rradius 28.3484
rwrist 1.31255
rhand -17.7202 -8.59734
rfingers 7.12502
rthumb 8.54039 -38.4046
lclavicle 1.00324e-015 5.96354e-016
lhumerus -32.3405 7.59026 83.1179
lradius 27.0503
lwrist 17.1692
lhand -18.8333 14.0904
lfingers 7.12502
lthumb 7.46608 43.9387
rfemur -20.7364 7.594 25.7048
rtibia 32.9046
rfoot -12.303 -15.6464
rtoes 16.6784
lfemur 14.1886 5.38074 -18.6261
ltibia 24.6131
lfoot -7.16326 -5.24847
ltoes -22.5702
803
root 6.52247 16.7902 -5.32259 140.336 -87.3173 -144.336
lowerback 0.34273 -1.28961 1.33609
upperback 1.64655 -1.7356 -0.227931
thorax 1.44755 -0.853034 -0.99716
lowerneck -7.50495 0.729553 2.07359
upperneck 11.3297 0.457988 1.55966
head 4.63214 0.373631 0.167591
rclavicle -1.82012e-015 9.93923e-016
rhumerus -33.6208 -4.91524 -85.6346
rradius 28.4149
rwrist 1.28627
rhand -17.6911 -8.58165
rfingers 7.12502
rthumb 8.56848 -38.3878
lclavicle -1.82012e-015 9.93923e-016
lhumerus -32.1922 7.40237 83.2472
lradius 27.3686
lwrist 17.3502
lhand -18.9047 14.0479
lfingers 7.12502
lthumb 7.39716 43.8985
rfemur -21.3656 7.75177 25.4114
rtibia 32.9599
rfoot -11.8035 -15.9095
rtoes 16.7215
lfemur 14.7899 5.19931 -18.9873
ltibia 22.7868
lfoot -7.88917 -4.94042
ltoes -22.3127
804
root 6.63077 16.7838 -5.30169 141.338 -87.4395 -145.196
lowerback 0.358298 -1.29421 1.2514
upperback 1.64178 -1.74068 -0.251401
thorax 1.4355 -0.856609 -0.973377
lowerneck -7.51019 0.706342 2.0675
upperneck 11.228 0.43107 1.56173
head 4.60164 0.359933 0.167405
rclavicle -1.51185e-014 2.78299e-015
rhumerus -33.5126 -4.84608 -85.69
rradius 28.4769
rwrist 1.27213
rhand -17.6854 -8.54673
rfingers 7.12502
rthumb 8.57391 -38.3526
lclavicle -1.51185e-014 2.78299e-015
lhumerus -32.0309 7.21402 83.3782
lradius 27.6715
lwrist 17.5196
lhand -18.9708 14.0143
lfingers 7.12502
lthumb 7.3333 43.8672
rfemur -21.9833 7.92555 25.1091
rtibia 32.9874
rfoot -11.3057 -16.1791
rtoes 16.7522
lfemur 15.3118 5.08306 -19.3258
ltibia 21.0302
lfoot -8.48089 -4.67536
ltoes -21.9085
805
root 6.74087 16.7785 -5.28113 142.621 -87.5496 -146.341
lowerback 0.391923 -1.29101 1.16364
upperback 1.64179 -1.7353 -0.276177
thorax 1.41855 -0.855041 -0.948742
lowerneck -7.52057 0.678525 2.06381
upperneck 11.1248 0.396754 1.57009
head 4.57158 0.343067 0.168341
rclavicle -9.11614e-015 6.16232e-015
rhumerus -33.4041 -4.77969 -85.748
rradius 28.5372
rwrist 1.27116
rhand -17.6996 -8.5134
rfingers 7.12502
rthumb 8.56023 -38.3199
lclavicle -9.11614e-015 6.16232e-015
lhumerus -31.8577 7.02829 83.5057
lradius 27.9545
lwrist 17.6721
lhand -19.0365 13.9725
lfingers 7.12502
lthumb 7.26994 43.8276
rfemur -22.5845 8.11129 24.8043
rtibia 32.9885
rfoot -10.8093 -16.4517
rtoes 16.7916
lfemur 15.7736 5.02922 -19.6317
ltibia 19.3383
lfoot -8.92227 -4.46851
ltoes -21.4179
